<svg width="1865" height="1182" viewBox="0 0 1865 1182" fill="none" xmlns="http://www.w3.org/2000/svg">
<g clip-path="url(#clip0_4989_299902)">
<path fill-rule="evenodd" clip-rule="evenodd" d="M220.934 1.99023C198.949 1.99023 181.126 19.8085 181.126 41.7883V1116.57C181.126 1138.55 198.949 1156.37 220.934 1156.37H1644.07C1666.05 1156.37 1683.87 1138.55 1683.87 1116.57V41.7882C1683.87 19.8084 1666.05 1.99023 1644.07 1.99023H220.934ZM1652.03 69.6468H218.943V1088.48H1652.03V69.6468Z" fill="#252525"/>
<mask id="mask0_4989_299902" style="mask-type:luminance" maskUnits="userSpaceOnUse" x="179" y="0" width="1507" height="1160">
<path d="M1685.86 0H179.136V1159.12H1685.86V0Z" fill="white"/>
<path fill-rule="evenodd" clip-rule="evenodd" d="M220.934 1.99023C198.949 1.99023 181.126 19.8085 181.126 41.7883V1116.57C181.126 1138.55 198.949 1156.37 220.934 1156.37H1644.07C1666.05 1156.37 1683.87 1138.55 1683.87 1116.57V41.7882C1683.87 19.8084 1666.05 1.99023 1644.07 1.99023H220.934ZM1652.03 69.6468H218.943V1088.48H1652.03V69.6468Z" fill="#181818"/>
</mask>
<g mask="url(#mask0_4989_299902)">
<path d="M218.944 69.6465V67.6566H216.953V69.6465H218.944ZM1652.03 69.6465H1654.02V67.6566H1652.03V69.6465ZM218.944 1088.47H216.953V1090.46H218.944V1088.47ZM1652.03 1088.47V1090.46H1654.02V1088.47H1652.03ZM183.117 41.788C183.117 20.9071 200.048 3.9798 220.934 3.9798V0C197.849 0 179.136 18.7091 179.136 41.788H183.117ZM183.117 1116.57V41.788H179.136V1116.57H183.117ZM220.934 1154.38C200.048 1154.38 183.117 1137.46 183.117 1116.57H179.136C179.136 1139.65 197.849 1158.36 220.934 1158.36V1154.38ZM1644.07 1154.38H220.934V1158.36H1644.07V1154.38ZM1681.88 1116.57C1681.88 1137.46 1664.96 1154.38 1644.07 1154.38V1158.36C1667.15 1158.36 1685.86 1139.65 1685.86 1116.57H1681.88ZM1681.88 41.7879V1116.57H1685.86V41.7879H1681.88ZM1644.07 3.9798C1664.96 3.9798 1681.88 20.9071 1681.88 41.7879H1685.86C1685.86 18.709 1667.15 0 1644.07 0V3.9798ZM220.934 3.9798H1644.07V0H220.934V3.9798ZM218.944 71.6364H1652.03V67.6566H218.944V71.6364ZM220.934 1088.47V69.6465H216.953V1088.47H220.934ZM1652.03 1086.48H218.944V1090.46H1652.03V1086.48ZM1650.04 69.6465V1088.47H1654.02V69.6465H1650.04Z" fill="#181818"/>
</g>
<path fill-rule="evenodd" clip-rule="evenodd" d="M932.5 48.2017C939.444 48.2017 945.073 42.5719 945.073 35.6272C945.073 28.6825 939.444 23.0527 932.5 23.0527C925.555 23.0527 919.927 28.6825 919.927 35.6272C919.927 42.5719 925.555 48.2017 932.5 48.2017Z" fill="#181818"/>
<path fill-rule="evenodd" clip-rule="evenodd" d="M932.496 41.9143C935.968 41.9143 938.782 39.0995 938.782 35.6271C938.782 32.1548 935.968 29.3398 932.496 29.3398C929.023 29.3398 926.209 32.1548 926.209 35.6271C926.209 39.0995 929.023 41.9143 932.496 41.9143Z" fill="black"/>
<path fill-rule="evenodd" clip-rule="evenodd" d="M7.96158 1130.26H1857.04C1861.44 1130.26 1865 1134.25 1865 1139.18V1163.69H0V1139.18C0 1134.25 3.56452 1130.26 7.96158 1130.26Z" fill="#181818"/>
<path fill-rule="evenodd" clip-rule="evenodd" d="M7.96126 1134.72H1857.04C1859.24 1134.72 1861.02 1136.72 1861.02 1139.18V1159.24H3.98047V1139.18C3.98047 1136.72 5.76273 1134.72 7.96126 1134.72Z" fill="#212121"/>
<path fill-rule="evenodd" clip-rule="evenodd" d="M0 1163.69H1865L1857.1 1168.41C1842.69 1177.02 1826.6 1181.52 1810.26 1181.52H54.7359C38.4006 1181.52 22.3165 1177.02 7.90304 1168.41L0 1163.69Z" fill="#181818"/>
<path fill-rule="evenodd" clip-rule="evenodd" d="M799.144 1130.26H1066.85V1131.38C1066.85 1143.68 1057.94 1153.66 1046.95 1153.66H819.048C808.055 1153.66 799.144 1143.68 799.144 1131.38V1130.26Z" fill="#2B2B2B"/>
</g>
<defs>
<clipPath id="clip0_4989_299902">
<rect width="1865" height="1182" fill="white"/>
</clipPath>
</defs>
</svg>
