<svg width="1874" height="1188" viewBox="0 0 1874 1188" fill="none" xmlns="http://www.w3.org/2000/svg">
<mask id="path-1-outside-1_490_75553" maskUnits="userSpaceOnUse" x="180" y="0" width="1514" height="1165" fill="black">
<rect fill="white" x="180" width="1514" height="1165"/>
<path fill-rule="evenodd" clip-rule="evenodd" d="M222 2C199.909 2 182 19.9087 182 42.0001V1122.24C182 1144.33 199.909 1162.24 222 1162.24H1652C1674.09 1162.24 1692 1144.33 1692 1122.24V42C1692 19.9086 1674.09 2 1652 2H222ZM1660 70H220V1094H1660V70Z"/>
</mask>
<path fill-rule="evenodd" clip-rule="evenodd" d="M222 2C199.909 2 182 19.9087 182 42.0001V1122.24C182 1144.33 199.909 1162.24 222 1162.24H1652C1674.09 1162.24 1692 1144.33 1692 1122.24V42C1692 19.9086 1674.09 2 1652 2H222ZM1660 70H220V1094H1660V70Z" fill="white"/>
<path d="M220 70V68H218V70H220ZM1660 70H1662V68H1660V70ZM220 1094H218V1096H220V1094ZM1660 1094V1096H1662V1094H1660ZM184 42.0001C184 21.0132 201.013 4 222 4V0C198.804 0 180 18.8041 180 42.0001H184ZM184 1122.24V42.0001H180V1122.24H184ZM222 1160.24C201.013 1160.24 184 1143.23 184 1122.24H180C180 1145.44 198.804 1164.24 222 1164.24V1160.24ZM1652 1160.24H222V1164.24H1652V1160.24ZM1690 1122.24C1690 1143.23 1672.99 1160.24 1652 1160.24V1164.24C1675.2 1164.24 1694 1145.44 1694 1122.24H1690ZM1690 42V1122.24H1694V42H1690ZM1652 4C1672.99 4 1690 21.0132 1690 42H1694C1694 18.804 1675.2 0 1652 0V4ZM222 4H1652V0H222V4ZM220 72H1660V68H220V72ZM222 1094V70H218V1094H222ZM1660 1092H220V1096H1660V1092ZM1658 70V1094H1662V70H1658Z" fill="#F0F0F0" mask="url(#path-1-outside-1_490_75553)"/>
<path fill-rule="evenodd" clip-rule="evenodd" d="M937 44C941.418 44 945 40.4183 945 36C945 31.5817 941.418 28 937 28C932.582 28 929 31.5817 929 36C929 40.4183 932.582 44 937 44Z" fill="#F0F0F0"/>
<path fill-rule="evenodd" clip-rule="evenodd" d="M937 40C939.209 40 941 38.2092 941 36C941 33.7909 939.209 32 937 32C934.791 32 933 33.7909 933 36C933 38.2092 934.791 40 937 40Z" fill="#E4E4E4"/>
<path fill-rule="evenodd" clip-rule="evenodd" d="M8 1136.48H1866C1870.42 1136.48 1874 1140.49 1874 1145.44V1170.08H0V1145.44C0 1140.49 3.58172 1136.48 8 1136.48Z" fill="#F0F0F0"/>
<path fill-rule="evenodd" clip-rule="evenodd" d="M8 1140.96H1866C1868.21 1140.96 1870 1142.97 1870 1145.44V1165.6H4V1145.44C4 1142.97 5.79086 1140.96 8 1140.96Z" fill="white"/>
<path fill-rule="evenodd" clip-rule="evenodd" d="M0 1170.08H1874L1866.06 1174.82C1851.58 1183.47 1835.41 1188 1819 1188H55C38.5859 1188 22.4242 1183.47 7.94118 1174.82L0 1170.08Z" fill="#F0F0F0"/>
<path fill-rule="evenodd" clip-rule="evenodd" d="M803 1136.48H1072V1137.6C1072 1149.97 1063.05 1160 1052 1160H823C811.954 1160 803 1149.97 803 1137.6V1136.48Z" fill="#F0F0F0"/>
</svg>
